HIERARCHY
ROOT Hips
{
	OFFSET 0.00000 0.00000 0.00000
	CHANNELS 6 Xposition Yposition Zposition Zrotation Yrotation Xrotation 
	JOINT LHipJoint
	{
		OFFSET 0 0 0
		CHANNELS 3 Zrotation Yrotation Xrotation
		JOINT LeftUpLeg
		{
			OFFSET 1.54859 -1.61379 0.86856
			CHANNELS 3 Zrotation Yrotation Xrotation
			JOINT LeftLeg
			{
				OFFSET 2.25087 -6.18423 0.00000
				CHANNELS 3 Zrotation Yrotation Xrotation
				JOINT LeftFoot
				{
					OFFSET 2.40328 -6.60297 0.00000
					CHANNELS 3 Zrotation Yrotation Xrotation
					JOINT LeftToeBase
					{
						OFFSET 0.17435 -0.47901 2.02453
						CHANNELS 3 Zrotation Yrotation Xrotation
						End Site
						{
							OFFSET 0.00000 -0.00000 1.04844
						}
					}
				}
			}
		}
	}
	JOINT RHipJoint
	{
		OFFSET 0 0 0
		CHANNELS 3 Zrotation Yrotation Xrotation
		JOINT RightUpLeg
		{
			OFFSET -1.54669 -1.61379 0.86856
			CHANNELS 3 Zrotation Yrotation Xrotation
			JOINT RightLeg
			{
				OFFSET -2.28132 -6.26789 0.00000
				CHANNELS 3 Zrotation Yrotation Xrotation
				JOINT RightFoot
				{
					OFFSET -2.51636 -6.91365 0.00000
					CHANNELS 3 Zrotation Yrotation Xrotation
					JOINT RightToeBase
					{
						OFFSET -0.15124 -0.41552 2.21090
						CHANNELS 3 Zrotation Yrotation Xrotation
						End Site
						{
							OFFSET -0.00000 -0.00000 1.13399
						}
					}
				}
			}
		}
	}
	JOINT LowerBack
	{
		OFFSET 0 0 0
		CHANNELS 3 Zrotation Yrotation Xrotation
		JOINT Spine
		{
			OFFSET -0.04287 2.26161 -0.25690
			CHANNELS 3 Zrotation Yrotation Xrotation
			JOINT Spine1
			{
				OFFSET 0.02248 2.28395 -0.10140
				CHANNELS 3 Zrotation Yrotation Xrotation
				JOINT Neck
				{
					OFFSET 0 0 0
					CHANNELS 3 Zrotation Yrotation Xrotation
					JOINT Neck1
					{
						OFFSET -0.11644 1.38496 0.11345
						CHANNELS 3 Zrotation Yrotation Xrotation
						JOINT Head
						{
							OFFSET 0.29383 1.36600 0.06642
							CHANNELS 3 Zrotation Yrotation Xrotation
							End Site
							{
								OFFSET 0.11075 1.41395 -0.00294
							}
						}
					}
				}
				JOINT LeftShoulder
				{
					OFFSET 0 0 0
					CHANNELS 3 Zrotation Yrotation Xrotation
					JOINT LeftArm
					{
						OFFSET 3.51628 0.59542 -0.30346
						CHANNELS 3 Zrotation Yrotation Xrotation
						JOINT LeftForeArm
						{
							OFFSET 4.76405 -0.00000 0.00000
							CHANNELS 3 Zrotation Yrotation Xrotation
							JOINT LeftHand
							{
								OFFSET 3.13759 -0.00000 -0.00000
								CHANNELS 3 Zrotation Yrotation Xrotation
								JOINT LeftFingerBase
								{
									OFFSET 0 0 0
									CHANNELS 3 Zrotation Yrotation Xrotation
									JOINT LeftHandIndex1
									{
										OFFSET 0.73226 -0.00000 -0.00000
										CHANNELS 3 Zrotation Yrotation Xrotation
										End Site
										{
											OFFSET 0.59037 -0.00000 -0.00000
										}
									}
								}
								JOINT LThumb
								{
									OFFSET 0 0 0
									CHANNELS 3 Zrotation Yrotation Xrotation
									End Site
									{
										OFFSET 0.59938 -0.00000 0.59938
									}
								}
							}
						}
					}
				}
				JOINT RightShoulder
				{
					OFFSET 0 0 0
					CHANNELS 3 Zrotation Yrotation Xrotation
					JOINT RightArm
					{
						OFFSET -3.30990 0.84213 -0.36430
						CHANNELS 3 Zrotation Yrotation Xrotation
						JOINT RightForeArm
						{
							OFFSET -5.10161 -0.00000 -0.00000
							CHANNELS 3 Zrotation Yrotation Xrotation
							JOINT RightHand
							{
								OFFSET -3.23267 -0.00000 -0.00000
								CHANNELS 3 Zrotation Yrotation Xrotation
								JOINT RightFingerBase
								{
									OFFSET 0 0 0
									CHANNELS 3 Zrotation Yrotation Xrotation
									JOINT RightHandIndex1
									{
										OFFSET -0.70200 -0.00000 -0.00000
										CHANNELS 3 Zrotation Yrotation Xrotation
										End Site
										{
											OFFSET -0.56597 -0.00000 -0.00000
										}
									}
								}
								JOINT RThumb
								{
									OFFSET 0 0 0
									CHANNELS 3 Zrotation Yrotation Xrotation
									End Site
									{
										OFFSET -0.57461 -0.00000 0.57461
									}
								}
							}
						}
					}
				}
			}
		}
	}
}
MOTION
Frames: 11
Frame Time: .0083333
-25.9005 13.3306 6.6345 180.4010 52.6033 202.6550 0.0000 0.0000 0.0000 -17.0143 -4.3108 -39.6917 17.9149 19.8954 83.8933 0.8174 -20.2220 -20.2064 1.3944 -7.4705 -21.1170 0.0000 0.0000 0.0000 11.4594 -3.0240 -33.0268 -22.5096 -19.8483 97.3555 -0.4606 -1.0654 -13.2504 -1.1294 6.7498 -18.9761 -12.4151 0.1425 28.0118 -3.7102 -0.6299 13.3256 3.1190 0.1204 0.0056 -33.7373 -18.5349 -4.8571 59.8881 -22.4094 -28.8203 37.7078 -13.4960 12.1699 0.0000 -0.0000 0.0000 -85.5947 -16.6884 12.4632 64.2817 -57.3470 -37.9257 -0.0000 -0.0000 160.3500 13.6628 -28.6710 -6.6522 -7.1250 0.0000 -0.0000 -9.9171 0.9938 9.8938 0.0000 -0.0000 0.0000 94.3256 8.0367 0.7038 -107.7241 58.7791 -75.2866 0.0000 -0.0000 -53.8132 -33.0204 26.2857 -16.0565 7.1250 -0.0000 -0.0000 -1.8320 0.5074 -1.8491
-25.6393 13.3283 6.4073 180.6880 51.8854 202.4540 0.0000 0.0000 0.0000 -16.9981 -4.0135 -36.8774 17.3864 19.8354 82.3380 0.8171 -19.8674 -20.0367 1.1448 -6.7943 -19.1075 0.0000 0.0000 0.0000 11.1586 -1.6043 -36.7763 -23.6482 -19.6779 100.7219 -0.6420 -2.1308 -16.0555 -1.5105 7.7619 -21.9931 -12.5988 -0.2184 28.5342 -3.3166 -1.1810 13.3590 3.8034 -0.1687 -0.0917 -33.5359 -18.4825 -5.7556 59.6097 -22.3135 -27.5177 36.9182 -13.2572 12.4960 0.0000 0.0000 0.0000 -85.6884 -20.3157 12.9983 66.7478 -57.8551 -40.0080 -0.0000 -0.0000 161.3820 13.9834 -26.9689 -6.4432 -7.1250 0.0000 -0.0000 -9.6065 2.6431 9.2864 0.0000 0.0000 0.0000 94.6295 7.6388 1.6884 -110.5984 58.3345 -77.7390 0.0000 -0.0000 -55.0070 -31.8113 25.7389 -15.0764 7.1250 -0.0000 -0.0000 -1.2175 -0.4185 -1.2089
-25.3768 13.3177 6.1773 181.0330 51.4319 202.1420 0.0000 0.0000 0.0000 -16.9581 -3.3416 -33.9870 16.8168 19.7553 80.6565 0.7490 -19.7430 -19.5190 0.8330 -5.8224 -16.2699 0.0000 0.0000 0.0000 10.7668 0.0762 -39.7854 -24.3693 -19.5360 102.8706 -0.6911 -3.9412 -17.6240 -2.0968 9.0648 -25.9982 -12.9601 -0.4583 29.1648 -2.8751 -1.6385 13.3802 4.6236 -0.4196 -0.2325 -33.3751 -18.3667 -6.5612 59.2872 -22.1401 -26.3612 36.4940 -13.0097 12.7411 0.0000 0.0000 0.0000 -85.8429 -23.3742 13.4873 69.4954 -58.3502 -42.3409 -0.0000 -0.0000 162.4760 14.0347 -25.6071 -6.1662 -7.1250 0.0000 -0.0000 -9.4882 3.9967 8.9294 0.0000 0.0000 0.0000 94.7975 7.7366 2.9814 -113.0398 57.8960 -79.8121 0.0000 -0.0000 -54.5028 -32.0600 25.0808 -14.8689 7.1250 -0.0000 -0.0000 -1.4820 -1.0787 -1.4543
-25.1089 13.3095 5.9367 181.0730 51.1598 201.4820 0.0000 0.0000 0.0000 -17.1718 -2.4895 -30.8424 16.1596 19.6427 78.7068 0.6535 -19.6728 -18.8276 0.6285 -5.0729 -14.1167 0.0000 0.0000 0.0000 9.8036 1.8817 -42.7527 -24.9647 -19.3985 104.6571 -0.7520 -4.0278 -18.3279 -1.3785 7.4297 -20.9949 -13.7292 -0.5989 30.2321 -2.1757 -2.1965 13.1849 5.5134 -0.7198 -0.5411 -33.2143 -18.1690 -7.5195 58.8017 -21.7875 -24.9943 35.9687 -12.5957 12.8719 0.0000 -0.0000 0.0000 -86.0230 -25.9304 13.5354 72.2499 -58.7754 -44.6912 -0.0000 -0.0000 163.3380 13.9609 -23.9038 -5.7523 -7.1250 0.0000 -0.0000 -9.4382 5.7121 8.5718 0.0000 -0.0000 0.0000 94.7031 8.2531 4.4556 -115.1069 57.4788 -81.5591 0.0000 -0.0000 -53.5604 -31.3753 24.2235 -14.0472 7.1250 -0.0000 -0.0000 -1.2173 -2.1976 -1.1700
-24.8387 13.2991 5.6806 180.7790 50.8648 200.4840 0.0000 0.0000 0.0000 -17.6765 -1.7773 -27.4091 15.4440 19.4949 76.5707 0.5908 -19.3799 -18.2365 0.3608 -3.8590 -10.6802 0.0000 0.0000 0.0000 8.3769 3.5501 -45.7678 -25.3348 -19.3035 105.7739 -0.8729 -3.6084 -19.3094 -0.8715 5.9522 -16.6457 -13.9847 -1.1078 31.2137 -2.1718 -3.0472 13.0712 5.8704 -1.1096 -0.8744 -32.6192 -18.0348 -8.6493 58.4483 -21.6312 -23.3417 35.2793 -12.2925 13.2489 -0.0000 -0.0000 0.0000 -85.3102 -27.8763 12.9890 74.7547 -59.1033 -46.8369 -0.0000 -0.0000 163.8740 14.0495 -21.2825 -5.1900 -7.1250 0.0000 -0.0000 -9.2668 8.3336 7.9331 -0.0000 -0.0000 0.0000 95.1061 8.8521 6.2865 -117.3311 56.9802 -83.4294 0.0000 -0.0000 -51.8342 -30.4533 23.0998 -12.9894 7.1250 -0.0000 -0.0000 -0.8368 -3.6562 -0.7818
-24.5636 13.2881 5.4119 180.4860 50.7879 199.5370 0.0000 0.0000 0.0000 -18.2703 -1.1395 -23.9876 14.6556 19.3009 74.1970 0.5158 -19.4718 -17.7438 0.2483 -3.2067 -8.8547 0.0000 0.0000 0.0000 6.7393 5.4194 -48.8656 -25.4446 -19.2739 106.1062 -0.9029 -3.4675 -19.5237 -0.4099 4.1099 -11.3860 -14.8608 -1.2761 31.9755 -1.5068 -3.6028 13.0240 7.1689 -1.4401 -0.9903 -32.6747 -17.8992 -9.8584 57.8302 -21.3299 -21.8585 34.3882 -11.8208 13.4217 -0.0000 -0.0000 0.0000 -85.6137 -29.7731 12.5258 76.3683 -59.2861 -48.2229 -0.0000 -0.0000 164.5500 12.3068 -21.4636 -4.5641 -7.1250 0.0000 -0.0000 -10.3752 8.3482 8.9102 -0.0000 -0.0000 0.0000 94.2986 10.1446 8.0835 -119.2845 56.4976 -85.0630 0.0000 -0.0000 -49.7099 -29.5276 22.0325 -11.9957 7.1250 -0.0000 -0.0000 -0.4244 -5.0376 -0.3855
-24.2920 13.2710 5.1264 180.4050 50.8557 199.0600 0.0000 0.0000 0.0000 -18.8618 -0.7206 -20.8277 13.8325 19.0624 71.6922 0.5051 -19.2969 -17.5732 0.7105 -5.3870 -15.0159 0.0000 0.0000 0.0000 4.9169 7.3256 -52.3979 -25.3843 -19.2902 105.9237 -1.0305 -3.9507 -20.9851 -0.6621 5.2042 -14.4919 -14.9713 -1.6352 32.5410 -1.2258 -4.2830 12.6234 7.7249 -1.7623 -1.4823 -32.4493 -17.5145 -10.4758 57.0543 -20.7920 -20.2298 33.5615 -11.2686 13.2273 -0.0000 0.0000 0.0000 -85.1087 -30.8694 12.0764 76.9670 -59.3483 -48.7378 -0.0000 -0.0000 164.7610 10.1990 -19.5792 -3.4502 -7.1250 0.0000 -0.0000 -11.6880 10.4291 9.5861 -0.0000 0.0000 0.0000 94.1382 11.2512 10.0732 -121.3932 55.9271 -86.8156 0.0000 -0.0000 -47.5056 -28.9700 21.1000 -11.2716 7.1250 -0.0000 -0.0000 -0.2055 -6.1797 -0.1822
-24.0135 13.2449 4.8311 180.6540 51.3715 198.7180 0.0000 0.0000 0.0000 -19.5116 0.3048 -17.2849 12.9466 18.7628 68.9594 0.6277 -18.2199 -17.9269 0.8203 -5.7788 -16.1440 0.0000 0.0000 0.0000 3.0907 9.4641 -55.8076 -25.1640 -19.3483 105.2579 -1.0675 -4.6418 -21.7122 -0.9386 6.1707 -17.2806 -15.1065 -1.9249 33.3046 -0.9254 -4.9277 12.1682 8.3208 -2.0565 -2.0997 -32.2459 -17.2156 -11.6763 56.1662 -20.3244 -18.2923 32.4673 -10.6583 13.2505 -0.0000 0.0000 0.0000 -84.3155 -31.3433 11.2034 77.2408 -59.3758 -48.9733 -0.0000 -0.0000 164.5610 9.5647 -20.3743 -3.3574 -7.1250 0.0000 -0.0000 -12.0956 9.7011 10.1186 -0.0000 0.0000 0.0000 94.1272 12.5095 12.7833 -123.6978 55.2412 -88.7169 0.0000 -0.0000 -44.9761 -28.5389 20.0731 -10.5728 7.1250 -0.0000 -0.0000 -0.0671 -7.3946 -0.0579
-23.7306 13.2069 4.5101 181.1290 52.1553 199.0340 0.0000 0.0000 0.0000 -20.2924 1.1871 -14.0932 12.0159 18.3973 66.0391 0.7288 -16.7824 -18.0243 1.0104 -6.3957 -17.9369 0.0000 0.0000 0.0000 1.1132 11.5637 -59.6968 -24.7507 -19.4501 104.0137 -1.0291 -5.1285 -21.6669 -1.3246 7.2888 -20.5737 -15.2463 -2.0842 32.9581 -0.2814 -5.2331 11.8715 9.1755 -2.2694 -2.1750 -32.4425 -16.8566 -12.5967 55.0551 -19.6812 -16.6182 31.3358 -9.9716 12.9654 0.0000 -0.0000 0.0000 -84.2656 -31.4137 10.8948 77.4035 -59.3919 -49.1134 -0.0000 -0.0000 164.5660 7.8504 -18.9780 -2.5674 -7.1250 0.0000 -0.0000 -13.1986 11.2164 10.6736 0.0000 -0.0000 0.0000 93.6958 14.1369 15.3386 -126.0346 54.4748 -90.6279 0.0000 -0.0000 -42.0799 -27.7709 19.0511 -9.7530 7.1250 -0.0000 -0.0000 0.3002 -8.6604 0.2516
-23.4364 13.1621 4.1629 181.7340 53.2897 199.7770 0.0000 0.0000 0.0000 -21.2534 2.0225 -11.1273 11.0310 17.9502 62.8821 0.7298 -15.5663 -17.5276 0.9796 -6.3004 -17.6585 0.0000 0.0000 0.0000 -1.0136 13.5401 -63.6710 -24.0896 -19.5942 102.0355 -0.9917 -4.8007 -21.1303 -2.0660 9.0022 -25.8022 -14.8897 -2.3029 32.2086 0.0476 -5.4631 11.4541 9.4157 -2.4128 -2.3289 -32.2353 -16.6761 -13.8580 53.9500 -19.2878 -14.8686 29.8150 -9.3601 12.8428 -0.0000 0.0000 0.0000 -84.0131 -30.6653 10.9706 78.0347 -59.4521 -49.6568 -0.0000 -0.0000 164.6720 7.9495 -21.5595 -2.9375 -7.1250 0.0000 -0.0000 -13.1156 8.6812 11.2937 -0.0000 0.0000 0.0000 93.7979 15.7631 18.0707 -128.3571 53.6370 -92.5083 0.0000 -0.0000 -39.1071 -26.9585 18.2121 -9.0322 7.1250 -0.0000 -0.0000 0.7325 -9.7205 0.5984
-23.1266 13.1124 3.7947 182.6060 54.7718 201.0990 0.0000 0.0000 0.0000 -22.3448 2.8724 -8.4714 10.0666 17.4472 59.7109 0.6711 -14.2790 -16.5484 0.9249 -6.1269 -17.1531 0.0000 0.0000 0.0000 -3.1254 15.3647 -67.7057 -23.2286 -19.7482 99.4779 -1.0695 -2.5298 -20.5999 -2.4058 9.6645 -27.8971 -14.5078 -2.4828 30.7463 0.4331 -5.5429 11.1115 9.6328 -2.5245 -2.1473 -31.8297 -16.5128 -15.4371 52.6442 -18.8094 -13.1075 28.0590 -8.6452 12.6131 0.0000 -0.0000 0.0000 -84.1026 -29.3487 11.0360 78.0335 -59.4519 -49.6558 -0.0000 -0.0000 164.9430 7.5474 -21.6609 -2.7998 -7.1250 0.0000 -0.0000 -13.3667 8.6171 11.5402 0.0000 -0.0000 0.0000 93.7456 17.7659 21.4311 -130.1344 52.9411 -93.9332 0.0000 -0.0000 -35.9451 -26.9418 17.7296 -8.7981 7.1250 -0.0000 -0.0000 0.6927 -10.2514 0.5584
